<svg xmlns="http://www.w3.org/2000/svg" xmlns:xlink="http://www.w3.org/1999/xlink" width="200" height="200" viewBox="0 0 200 200" fill="none">
<path d="M47.2344 25.0977L46.7266 24.1797L46.1406 23.3008L45.4961 22.5195L44.7734 21.7773L43.9727 21.1133L43.1523 20.5469L42.2539 20.0391L41.3164 19.6094L40.3594 19.2773L38.3281 18.8867L37.2539 18.8281L36.082 18.9062L34.9297 19.082L33.7969 19.3945L32.7031 19.8242L31.668 20.3711L30.6914 21.0156L29.7148 19.4727L28.543 18.125L27.6445 17.3438L26.6875 16.6797L25.6523 16.1133L24.5586 15.6445L23.4453 15.3125L22.2734 15.0977L20.4961 15L19.5781 15.0781L18.6602 15.2148L17.7617 15.4297L16.0625 16.0547L15.2812 16.4844L14.2852 17.1289L13.3672 17.8711L12.5469 18.6914L11.8047 19.6094L11.1797 20.6055L10.6523 21.6602L10.0664 23.3398L9.77344 25.1562L8.79688 25.5078L7.89844 25.9375L7.03906 26.4453L6.25781 27.0117L5.51562 27.6562L4.83203 28.3398L4.22656 29.082L3.19141 30.7227L2.80078 31.6016L2.23438 33.457L2.07813 34.4141L2 35.3906L2.01953 36.4062L2.13672 37.4219L2.33203 38.4375L2.625 39.3945L2.97656 40.3125L3.42578 41.1719L3.93359 42.0117L4.51953 42.7734L5.16406 43.4961L5.86719 44.1602L7.42969 45.2734L8.28906 45.7422L9.1875 46.1328L10.1055 46.4258L11.082 46.6406L12.0586 46.7773L13.0937 46.8359L44.0117 46.8359L45.0469 46.7969L46.043 46.6602L47 46.4258L47.9375 46.1328L48.8359 45.7422L49.6953 45.2734L50.4961 44.7461L51.2578 44.1406L51.9805 43.4766L52.625 42.7734L53.7187 41.1523L54.168 40.2734L54.8125 38.3789L55.0078 37.3633L55.125 35.332L55.0469 34.3555L54.8711 33.3789L54.6172 32.4414L54.2852 31.5234L53.875 30.6445L53.3867 29.8047L52.8398 29.0039L52.2148 28.2617L51.5312 27.5781L49.9687 26.3867L49.1094 25.8984L47.2344 25.0977Z"   fill="#5E5E5E" >
</path>
<path d="M161.544 41.7092L161.257 41.1902L160.926 40.6933L160.562 40.2515L160.154 39.8319L159.702 39.4564L159.239 39.1362L158.732 38.8491L158.202 38.6061L157.662 38.4184L156.515 38.1975L155.908 38.1644L155.246 38.2086L154.596 38.308L153.956 38.4847L153.338 38.7276L152.754 39.0368L152.202 39.4012L151.651 38.5288L150.989 37.7669L150.482 37.3252L149.941 36.9497L149.357 36.6294L148.739 36.3644L148.11 36.1767L147.449 36.0552L146.445 36L145.926 36.0442L145.408 36.1215L144.901 36.2429L143.941 36.5963L143.5 36.8393L142.938 37.2037L142.419 37.6233L141.956 38.0871L141.537 38.6061L141.184 39.1693L140.886 39.7656L140.555 40.7153L140.39 41.7423L139.838 41.9411L139.331 42.184L138.846 42.4712L138.404 42.7914L137.985 43.1558L137.599 43.5423L137.257 43.962L136.673 44.8896L136.452 45.3865L136.132 46.4356L136.044 46.9767L136 47.5288L136.011 48.1031L136.077 48.6773L136.188 49.2515L136.353 49.7926L136.551 50.3117L136.805 50.7975L137.092 51.2724L137.423 51.7031L137.787 52.1117L138.184 52.4871L139.066 53.1166L139.551 53.3816L140.059 53.6025L140.577 53.7681L141.129 53.8896L141.68 53.9669L142.265 54L159.724 54L160.309 53.9779L160.871 53.9006L161.412 53.7681L161.941 53.6025L162.449 53.3816L162.934 53.1166L163.386 52.8184L163.816 52.4761L164.224 52.1006L164.588 51.7031L165.206 50.7865L165.46 50.2896L165.824 49.2184L165.934 48.6442L166 47.4957L165.956 46.9436L165.857 46.3914L165.713 45.8614L165.526 45.3423L165.294 44.8454L165.018 44.3706L164.71 43.9178L164.357 43.4982L163.971 43.1117L163.088 42.438L162.603 42.162L161.544 41.7092Z"   fill="#474747" >
</path>
<path d="M175.943 163.456C173.404 164.188 170.59 164.881 167.514 165.53C167.585 165.933 167.621 166.341 167.621 166.75C167.621 176.889 145.586 185.11 118.402 185.11C94.0566 185.11 73.8378 178.516 69.8847 169.854C37.1914 167.362 14.1055 161.227 14.1055 154.055C14.1055 144.68 53.6308 137.063 102.488 137.063C128.094 137.063 151.172 139.17 167.289 142.532C183.062 142.659 195.746 147.415 195.746 153.274C195.746 158.006 187.455 162.024 175.943 163.456Z"   fill="url(#linear_fill_97_83)" >
</path>
<path d="M30.44 135.284C30.44 135.284 30.44 135.284 26.69 130.764C24.707 127.844 22.3411 127.426 19.5924 129.512C19.5924 129.512 19.5924 129.512 12.5787 130.11C6.19849 127.245 3.33391 128.654 3.98495 134.336C4.35344 136.101 5.01751 137.205 5.97714 137.649C8.48495 140.705 9.81112 143.154 9.95566 144.997C10.1725 147.758 12.3209 150.887 17.7017 149.098C21.289 147.904 23.7525 149.901 25.0924 155.09C29.1366 160.45 36.2415 162.591 46.4068 161.514C46.4068 161.514 46.4068 161.514 44.4674 147.452C41.3528 146.221 38.9739 145.461 37.3306 145.172C37.3306 145.172 37.3306 145.172 34.9166 139.797C34.9166 137.736 33.4244 136.232 30.44 135.284Z"   fill="url(#linear_fill_97_85)" >
</path>
<path d="M29.9531 144.858L29.9316 144.827C30.1478 141.451 30.0606 139.094 29.6699 137.757C30.1953 138.458 30.7559 143.493 30.4512 145.179L37.6777 150.003C37.6367 149.956 37.6113 149.923 37.6113 149.923C37.6113 149.923 37.9844 147.134 37.6543 145.729C37.9805 146.12 38.1992 149.05 38.1035 150.288L44.0703 154.27L43.3106 155.032L37.1543 150.673C35.4902 151.649 33.207 151.804 32.1035 151.7C34.1439 151.514 35.6348 151.046 36.5762 150.296C36.7264 150.418 36.8902 150.523 37.0645 150.608L19.7129 138.323C19.752 138.368 19.7871 138.411 19.8223 138.458C17.252 138.821 14.9447 138.666 12.9004 137.993C13.0645 137.667 15.7813 138.936 19.3672 138.081L12.2793 133.061L21.707 139.354C21.2266 136.831 20.6523 134.787 19.9844 133.222C18.9941 130.903 22.0527 137.087 22.0938 139.612L29.9531 144.858Z"   fill="url(#linear_fill_97_87)" >
</path>
<path d="M20.3555 148.071C22.4141 148.131 25.0944 146.941 28.3965 144.502C28.531 144.657 28.6759 144.801 28.8301 144.936C25.7051 147.401 22.3555 148.372 20.3555 148.071Z"   fill="url(#linear_fill_97_88)" >
</path>
<path d="M23.0298 146.897C22.1067 151.014 27.1991 153.968 38.3072 155.76C54.9732 158.448 51.0025 152.27 46.7173 145.573C43.6177 142.471 43.2017 140.576 43.2017 138.205C43.2017 135.834 45.4693 131.955 38.9517 130.346C36.0871 129.695 34.5858 126.83 34.4478 121.752C33.9986 119.201 31.2642 118.563 26.2447 119.838C24.0207 120.265 21.7701 119.189 19.4927 116.61C13.2102 112.334 10.2948 113.409 10.7466 119.834C11.9595 124.438 12.7408 127.516 12.3502 130.336C11.9595 133.157 13.192 138.491 19.4908 140.688C23.69 142.147 24.8697 144.217 23.0298 146.897Z"   fill="#3387B8" >
</path>
<path d="M36.4961 140.258C36.6699 141.362 36.6914 142.84 35.7363 144.297L43.4043 154.055L42.1875 154.055L34.7656 144.182C31.1758 145.713 29.1601 145.073 28.1621 144.622C30.1152 145.098 32.1803 144.773 34.3574 143.645L28.7187 136.137C28.75 136.194 28.7812 136.254 28.8164 136.315C25.0644 137.629 21.1699 137.786 19.3711 136.85C21.2969 137.577 24.3568 137.215 28.5508 135.764L28.4668 135.793L22.1836 127.426C22.1973 127.461 22.209 127.495 22.2187 127.528C19.4596 127.697 17.2565 126.819 15.6094 124.893C15.8711 124.639 17.6309 127.2 21.8867 127.042L16.6348 120.02L23.5566 128.821L23.5703 128.788C24.3192 127.045 24.4803 125.106 24.0293 123.264L24.0137 123.204L24.0137 123.204C24.4707 124.624 25.3437 126.317 23.8945 129.245L29.7539 136.702L29.791 136.649C30.9629 134.993 31.5488 132.814 31.5488 130.114C31.8184 130.954 31.8242 134.801 30.1504 137.198L35.3476 143.803C35.6758 143.293 36.4961 141.86 36.4961 140.258Z" fill-rule="evenodd"  fill="url(#linear_fill_97_90)" >
</path>
<path d="M42.1426 147.602C40.8985 145.465 33.6591 144.73 35.5927 138.322C37.204 135.699 39.4446 134.945 37.1927 130.482C34.9407 126.019 34.3685 127.808 37.1927 123.412C38.4271 122.149 39.6644 119.984 40.9026 116.902C43.3284 113.53 45.4959 113.866 47.4126 117.922C48.3423 121.425 46.8737 123.658 51.6725 125.252C54.8731 126.314 55.3643 128.538 53.1325 131.922C52.2015 134.051 52.8839 135.408 55.1925 136.002C55.1925 136.002 55.1965 135.997 54.3625 143.072C53.3703 145.332 53.3703 146.851 54.3625 147.612C55.8527 148.75 58.7101 152.163 55.1925 158.812C51.6749 165.46 43.3868 160.297 42.1426 157.172C40.8985 154.047 43.3868 149.738 42.1426 147.602Z"   fill="#63B9EB" >
</path>
<path d="M50.2676 153.161L51.6699 160.192L50.6113 160.192L49.3398 152.752C47.4668 152.272 45.748 150.762 45.043 149.909C46.6172 151.22 48.0026 151.943 49.1992 152.079C49.2186 152.271 49.2599 152.46 49.3223 152.643L45.748 131.686C45.7462 131.744 45.7403 131.801 45.7305 131.858C43.6562 130.295 42.1348 128.555 41.166 126.635C41.5117 126.522 42.5332 129.34 45.6777 131.27L44.207 122.709L46.4238 133.825C47.8665 131.704 48.9082 129.853 49.5488 128.272C50.4883 125.928 48.2793 132.467 46.5215 134.282L48.3691 143.549C48.368 143.537 48.368 143.525 48.3691 143.512C50.9108 141.278 52.5156 139.549 53.1836 138.327C53.0586 139.194 49.8926 143.151 48.4766 144.127L50.1777 152.651L50.1777 152.547C50.1777 152.547 52.4121 150.838 53.1738 149.618C53.125 150.129 51.2207 152.352 50.2676 153.161Z"   fill="url(#linear_fill_97_93)" >
</path>
<path d="M39.3047 139.032C40.7161 140.529 43.4505 141.583 47.5078 142.194C47.4941 142.398 47.4941 142.603 47.5078 142.807C43.5625 142.336 40.5078 140.661 39.3047 139.032Z"   fill="url(#linear_fill_97_94)" >
</path>
<path d="M185.277 151.813C185.844 147.474 184.385 145.138 180.902 144.803C185.617 144.354 188.738 147.223 188.789 151.813C187.812 151.847 186.642 151.847 185.277 151.813Z"   fill="#3387B8" >
</path>
<path d="M187.57 151.838C188.491 147.457 187.359 144.224 184.174 142.141C188.24 143.424 191.162 145.352 192.111 151.838C190.599 151.931 189.083 151.931 187.57 151.838Z"   fill="#3387B8" >
</path>
<path d="M192.83 151.906C192.421 147.746 193.914 145.363 197.309 144.756C194.162 144.678 190.65 144.467 188.129 151.906C190.264 151.837 191.831 151.837 192.83 151.906Z"   fill="#3387B8" >
</path>
<path d="M183.131 154.641C186.422 154.641 188.91 154.721 188.91 151.635C188.91 148.549 186.242 146.047 182.953 146.047C179.664 146.047 176.996 148.549 176.996 151.635C176.996 154.721 179.842 154.641 183.131 154.641Z"   fill="#266287" >
</path>
<path d="M189.611 154.641C191.66 154.641 193.211 154.69 193.211 152.797C193.211 150.905 191.549 149.368 189.5 149.368C187.451 149.368 185.789 150.903 185.789 152.797C185.789 154.692 187.561 154.641 189.611 154.641Z"   fill="#3C7DA6" >
</path>
<g opacity="0.4">
<path d="M63.1495 153.96C67.5108 155.328 65.7726 156.138 64.3195 156.94C61.6555 158.413 62.856 159.705 64.2095 160.89C66.2154 162.648 81.1853 166.876 97.4197 163.28C112.558 159.929 110.28 153.905 106.39 151.17C103.259 148.979 89.5967 143.994 73.9796 145.07C64.5811 145.715 60.5427 147.326 59.7595 148.57C58.4626 150.629 58.2921 152.439 63.1495 153.96Z"   fill="#1A1A1A" >
</path>
</g>
<path d="M158.181 72.3183C159.346 73.4785 160.001 75.0542 160.001 76.6983L160.001 137.738C160.001 139.383 159.346 140.958 158.181 142.118C157.016 143.279 155.435 143.918 153.791 143.918L109.001 143.918C107.357 143.918 105.775 143.279 104.611 142.118C103.447 140.958 102.791 139.382 102.791 137.738L102.791 76.6983C102.791 75.0545 103.446 73.4784 104.611 72.3183C105.776 71.1582 107.357 70.5083 109.001 70.5083L153.791 70.5083C155.435 70.5083 157.016 71.1581 158.181 72.3183Z"   fill="#507AB5" >
</path>
<path d="M155.439 74.7433C156.6 75.9082 157.25 77.4866 157.246 79.1309L157.246 139.436C157.252 142.858 154.482 145.638 151.059 145.645L108.285 145.645C106.641 145.641 105.065 144.985 103.905 143.821C102.745 142.656 102.095 141.078 102.098 139.434L102.098 79.1309C102.094 77.4866 102.744 75.9082 103.905 74.7433C105.065 73.5785 106.641 72.9225 108.285 72.9199L151.059 72.9199C152.703 72.9225 154.279 73.5785 155.439 74.7433Z"   fill="url(#linear_fill_97_103)" >
</path>
<path d="M108.652 78.6141C108.652 78.3823 108.748 78.1679 108.912 78.0041C109.076 77.8404 109.3 77.7441 109.532 77.7441L150.512 77.7441C150.744 77.7441 150.968 77.8404 151.132 78.0041C151.297 78.1679 151.392 78.3823 151.392 78.6141L151.392 137.194C151.392 137.677 150.995 138.064 150.512 138.064L109.532 138.064C109.3 138.064 109.076 137.968 108.912 137.804C108.748 137.64 108.652 137.426 108.652 137.194L108.652 78.6141Z"   fill="#64ADFF" >
</path>
<path d="M90.043 125.344C89.7496 125.105 89.6274 124.714 89.7325 124.35C89.8376 123.987 90.1497 123.721 90.5254 123.676C110.705 121.848 108.248 85.7305 108.389 78.8047C108.4 78.2188 108.779 77.75 109.365 77.75L150.107 77.75C150.628 77.7522 151.048 78.1751 151.047 78.6953L148.912 117.475C148.824 117.757 148.697 118.026 148.537 118.275L132.539 135.627C132.348 135.853 128.156 137.738 127.861 137.717C124.043 137.453 103.045 135.865 90.043 125.344Z"   fill="#E6E6E6" >
</path>
<path d="M133.66 124.257C136.004 124.405 142.974 124.456 148.97 117.727C147.548 124.813 138.428 137.629 126.57 137.717C133.385 134.201 133.125 127.695 132.91 124.777C132.885 124.435 133.319 124.236 133.66 124.257Z"   fill="#87BDFA" >
</path>
<path     fill="#64ADFF"  d="M117.609 88.1875C117.609 88.5111 117.876 88.7775 118.199 88.7775L144.599 88.7775C144.923 88.7775 145.179 88.5111 145.179 88.1875L145.179 87.2975C145.179 86.9739 144.923 86.7075 144.599 86.7075L118.199 86.7075C117.876 86.7075 117.609 86.9739 117.609 87.2975L117.609 88.1875">
</path>
<path     fill="#64ADFF"  d="M116.92 95.0801C116.92 95.4037 117.186 95.6701 117.51 95.6701L143.91 95.6701C144.234 95.6701 144.49 95.4037 144.49 95.0801L144.49 94.1901C144.49 93.8665 144.234 93.6001 143.91 93.6001L117.51 93.6001C117.186 93.6001 116.92 93.8665 116.92 94.1901L116.92 95.0801">
</path>
<path     fill="#64ADFF"  d="M116.229 101.973C116.229 102.296 116.495 102.563 116.819 102.563L129.429 102.563C129.752 102.563 130.019 102.296 130.019 101.973L130.019 101.083C130.019 100.759 129.752 100.493 129.429 100.493L116.819 100.493C116.495 100.493 116.229 100.759 116.229 101.083L116.229 101.973">
</path>
<path     fill="#64ADFF"  d="M132.089 101.973C132.089 102.296 132.355 102.563 132.679 102.563L133.569 102.563C133.892 102.563 134.159 102.296 134.159 101.973L134.159 101.083C134.159 100.759 133.892 100.493 133.569 100.493L132.679 100.493C132.355 100.493 132.089 100.759 132.089 101.083L132.089 101.973">
</path>
<path d="M115.756 108.994C115.601 108.989 115.454 108.922 115.348 108.808C115.242 108.694 115.186 108.542 115.192 108.387L115.223 107.493C115.228 107.337 115.295 107.19 115.408 107.084C115.522 106.978 115.673 106.921 115.829 106.926L142.215 107.848C142.538 107.86 142.791 108.131 142.78 108.453L142.748 109.35C142.737 109.673 142.466 109.925 142.143 109.914L115.756 108.994Z"   fill="#64ADFF" >
</path>
<path d="M140.156 115.204C140.478 115.227 140.721 115.506 140.699 115.829L140.636 116.723C140.613 117.046 140.334 117.289 140.011 117.266L113.675 115.424C113.519 115.414 113.374 115.343 113.271 115.225C113.169 115.107 113.117 114.953 113.128 114.797L113.191 113.903C113.215 113.581 113.495 113.338 113.818 113.362L140.156 115.204Z"   fill="#64ADFF" >
</path>
<path d="M111.241 122.219C110.92 122.179 110.692 121.888 110.731 121.567L110.84 120.676C110.858 120.521 110.937 120.379 111.059 120.283C111.182 120.186 111.338 120.142 111.493 120.16L124.014 121.698C124.169 121.717 124.309 121.796 124.405 121.919C124.5 122.042 124.543 122.197 124.524 122.352L124.415 123.241C124.375 123.561 124.083 123.789 123.762 123.75L111.241 122.219Z"   fill="#64ADFF" >
</path>
<path d="M128.118 122.202C128.272 122.221 128.413 122.3 128.508 122.423C128.604 122.546 128.647 122.701 128.627 122.856L128.518 123.745C128.478 124.065 128.187 124.293 127.866 124.254L126.975 124.145C126.654 124.105 126.426 123.813 126.465 123.493L126.575 122.604C126.593 122.449 126.672 122.309 126.795 122.213C126.917 122.117 127.073 122.073 127.227 122.092L128.118 122.202Z"   fill="#64ADFF" >
</path>
<path d="M121.4 72.9199L121.4 79.123L139.322 79.123L139.322 72.9199L121.4 72.9199Z"   fill="#6FBAE8" >
</path>
<path d="M122.779 70.5083L140.703 70.5083L139.324 72.9204L121.4 72.9204L122.779 70.5083L122.779 70.5083Z"   fill="#6FBAE8" >
</path>
<path d="M129.858 70.9628C128.699 70.4827 127.948 69.3472 127.948 68.0927C127.948 66.3798 129.335 64.9927 131.048 64.9927C132.303 64.9927 133.438 65.7437 133.918 66.9027C134.398 68.0617 134.125 69.3957 133.238 70.2828C132.351 71.1698 131.017 71.4428 129.858 70.9628ZM129.836 69.3116C129.343 68.8186 129.189 68.0863 129.456 67.4416C129.723 66.7969 130.348 66.3716 131.046 66.3716C131.503 66.3716 131.943 66.5485 132.266 66.8716C132.59 67.1947 132.776 67.6344 132.776 68.0916C132.776 68.7893 132.361 69.4241 131.716 69.6916C131.072 69.9592 130.33 69.8047 129.836 69.3116Z" fill-rule="evenodd"  fill="#6FBAE8" >
</path>
<path d="M72.349 153.178C71.6557 153.815 71.1635 153.959 71.0209 154.495C70.8783 155.03 71.3959 156.252 72.0346 156.526C72.8451 156.862 74.2807 157.352 74.683 157.502C75.0854 157.653 77.8666 158.588 78.6146 158.022C79.3627 157.456 78.6146 156.167 76.9818 155.288C75.349 154.409 72.9135 153.334 72.9135 153.334L72.349 153.178Z"   fill="#333333" >
</path>
<path d="M87.6048 142.469C87.6048 143.408 87.3705 143.869 87.6615 144.336C87.9525 144.803 89.2084 145.266 89.8392 144.979C90.638 144.615 91.9759 143.901 92.3568 143.707C92.7377 143.514 95.3216 142.119 95.4173 141.186C95.513 140.252 94.0502 139.924 92.3041 140.514C90.558 141.104 88.1029 142.158 88.1029 142.158L87.6048 142.469Z"   fill="#5C5C5C" >
</path>
<path d="M90.082 141.398C90.2324 132.629 88.7148 126.006 86.7617 124.773C84.3379 121.977 79.9531 120.816 79.9531 120.816L71.918 124.773C71.918 124.773 79.25 127.943 83.873 131.119C84.2363 134.229 84.4297 134.754 85.2851 137.193C86.3516 140.225 87.3672 141.471 87.668 142.336C87.9687 143.201 90.248 142.506 90.082 141.398Z"   fill="url(#linear_fill_97_125)" >
</path>
<path d="M78.1719 126.575C78.4512 132.506 77.8477 135.069 77.4414 139.602C77.0352 144.135 74.9883 151.538 74.4609 154.163C74.1074 155.948 71.207 154.844 71.3574 153.274C71.5078 151.704 71.5859 142.336 71.25 139.614C70.9141 136.891 70.3594 123.106 70.3594 123.106L77.7363 122.186L78.1719 126.575Z"   fill="url(#linear_fill_97_126)" >
</path>
<path d="M75.2358 96.9864C75.3743 97.1383 75.4913 97.3085 75.5834 97.4923L75.601 97.5274L75.5815 97.4317C75.8002 97.4942 75.894 97.881 75.9018 98.3517L75.9018 98.3907C76.4311 98.2462 76.81 99.8634 75.6577 99.9063C75.6235 100.002 75.5782 100.093 75.5229 100.178C75.2319 100.602 74.9135 101.154 74.4623 101.473L74.4623 102.66L72.1147 102.688L72.1147 101.293C71.9211 101.134 71.7571 100.943 71.6303 100.727C71.4589 100.467 71.3162 100.19 71.2045 99.9005L71.2514 99.9005C69.8842 99.9962 70.3373 98.1114 70.9174 98.4083C70.9174 98.3458 70.9174 98.2813 70.9174 98.213C70.9723 97.6886 71.1855 97.1933 71.5288 96.7931C72.0042 96.2457 72.7215 95.9716 73.4409 96.0626C74.1351 96.1303 74.7772 96.4608 75.2358 96.9864Z" fill-rule="evenodd"  fill="#EBB0B0" >
</path>
<path d="M70.8452 94.4392C70.1562 95.0194 69.7118 95.8383 69.601 96.7322C69.4565 97.8142 70.0249 98.3513 70.4975 99.1716C70.935 98.9002 71.0405 98.2752 71.3491 97.8689C71.7804 97.3734 72.3205 96.9843 72.9272 96.7322C74.2358 96.5369 74.8627 96.5369 75.4526 97.7088L75.7514 98.5857C76.5581 97.8201 76.851 95.2654 75.3237 94.613C75.1518 94.408 74.7885 94.3552 74.3002 94.3474C73.9467 94.3377 73.9096 94.4705 73.726 94.4392C73.5424 94.408 73.2788 93.988 72.5893 93.9041C72.2163 93.8533 71.0893 94.1267 70.8452 94.4392Z"   fill="#131322" >
</path>
<path d="M77.4934 85.3698C77.1984 84.5705 77.0746 83.7181 77.1301 82.8678C77.3469 82.321 77.4778 82.5045 77.4465 82.819C77.6418 82.5729 78.4114 81.4128 79.9055 82.8366C80.175 83.5807 80.2961 85.1628 79.343 86.0534C78.7284 86.4818 78.1119 86.2539 77.4934 85.3698Z"   fill="#EFBA9E" >
</path>
<path d="M73.8711 103.35C73.8711 103.35 77.582 98.3751 77.4277 85.838C77.7324 83.8848 79.3477 84.1212 80.2227 84.5352C80.2227 84.5352 83.2461 103.274 80.3164 106.008L73.8711 103.35Z"   fill="url(#linear_fill_97_130)" >
</path>
<path d="M71.955 101.711C73.2415 102.362 74.0781 102.382 74.4648 101.771C75.0097 101.791 78.5663 101.453 80.3242 104.561C81.4394 107.914 82.2773 116 81.3007 120.059C80.3242 124.562 75.2128 125.053 70.1679 124.605C68.0839 122.107 64.9511 111.584 66.0663 107.57C66.8775 104.75 68.8404 102.797 71.955 101.711Z"   fill="#FFB14A" >
</path>
<path d="M79.7297 111.477L78.9485 111.125C78.4565 110.908 78.1151 110.448 78.05 109.914L77.2844 103.648C77.2519 103.335 77.4738 103.051 77.7864 103.008C77.8421 103 77.8986 103 77.9543 103.008C78.4083 103.086 78.757 103.453 78.8117 103.91L79.7297 111.477Z"   fill="url(#linear_fill_97_132)" >
</path>
<path d="M76.3828 107.678C76.5718 106.847 76.9324 106.064 77.4414 105.381C77.9219 105.041 77.9316 105.266 77.7344 105.512C78.0234 105.408 79.3086 104.859 79.7871 106.865C79.6074 107.647 78.8438 109.027 77.5625 109.258C76.8151 109.281 76.4219 108.755 76.3828 107.678Z"   fill="#EFBA9E" >
</path>
<path d="M68.641 106.067C68.641 106.067 71.9184 106.985 71.5023 114.16L76.6059 107.449C78.559 108.051 77.8949 109.873 77.5824 111.09L74.2621 118.36C72.9926 120.551 71.0219 120.024 70.1605 119.86C69.2992 119.696 68.2328 118.688 67.9008 117.864C66.3383 115.584 65.4418 113.145 65.4633 109.074C65.4574 109.082 65.4847 105.139 68.641 106.067Z"   fill="url(#linear_fill_97_134)" >
</path>
<path d="M81.3753 97.0234L79.1214 100.766L76.9476 102.102C76.7446 102.547 76.7905 103.066 77.0687 103.469C77.4319 103.912 77.9554 103.951 78.0355 103.992C78.7881 103.643 79.5257 103.281 80.2484 102.906L84.3148 102.865L81.3753 97.0234Z"   fill="url(#linear_fill_97_135)" >
</path>
<path d="M81.3726 97.024C80.689 97.3853 80.7691 99.2779 81.4547 100.645C82.1383 101.975 83.6285 103.221 84.3121 102.86C84.9957 102.499 84.8355 100.727 84.3121 99.5181C83.6285 98.0298 82.0582 96.6607 81.3824 97.024L81.3726 97.024Z"   fill="#98D6FA" >
</path>
<path d="M80.415 100.482L81.7939 99.75C82.1747 99.5473 82.6478 99.6915 82.8506 100.072L82.8506 100.072C83.0533 100.453 82.909 100.926 82.5283 101.129L81.1494 101.863C80.9663 101.96 80.7521 101.981 80.5539 101.92C80.3557 101.859 80.1898 101.722 80.0928 101.539L80.0928 101.539C79.89 101.158 80.0343 100.685 80.415 100.482Z"   fill="#FFFFFF" >
</path>
<path d="M83.5879 97.4883L84.4707 95.8262L84.9121 96.6152L86.9824 94.7285L84.6699 97.2656L84.4395 96.6309L83.5879 97.4883L83.5879 97.4883Z"   fill="#98D6FA" >
</path>
<path d="M85.0547 100.17L86.7305 99.3169L86.6406 100.217L89.418 99.8599L86.0684 100.61L86.2441 99.9575L85.0547 100.17L85.0547 100.17Z"   fill="#98D6FA" >
</path>
<defs>
<linearGradient id="linear_fill_97_83" x1="-38773.412109375" y1="45111.00390625" x2="-38591.771484375" y2="45111.00390625" gradientUnits="userSpaceOnUse">
<stop offset="0" stop-color="#FFF5DE"  />
<stop offset="1" stop-color="#343434"  />
</linearGradient>
<linearGradient id="linear_fill_97_85" x1="-16079.17529296875" y1="26215.77734375" x2="-16045.00439453125" y2="26219.513671875" gradientUnits="userSpaceOnUse">
<stop offset="0" stop-color="#98D6FA"  />
<stop offset="1" stop-color="#47B0F1"  />
</linearGradient>
<linearGradient id="linear_fill_97_87" x1="22688.771484375" y1="27134.404296875" x2="22691.26953125" y2="27133.43359375" gradientUnits="userSpaceOnUse">
<stop offset="0.03" stop-color="#AFDEF9"  />
<stop offset="1" stop-color="#7CC9F9"  />
</linearGradient>
<linearGradient id="linear_fill_97_88" x1="6065.283203125" y1="4525.228515625" x2="6065.94921875" y2="4525.0703125" gradientUnits="userSpaceOnUse">
<stop offset="0.03" stop-color="#AFDEF9"  />
<stop offset="1" stop-color="#7CC9F9"  />
</linearGradient>
<linearGradient id="linear_fill_97_90" x1="14684.080078125" y1="37090.3671875" x2="14685.90625" y2="37089.3828125" gradientUnits="userSpaceOnUse">
<stop offset="0.03" stop-color="#AFDEF9"  />
<stop offset="1" stop-color="#7CC9F9"  />
</linearGradient>
<linearGradient id="linear_fill_97_93" x1="-2459.07080078125" y1="35249.60546875" x2="-2457.02734375" y2="35248.63671875" gradientUnits="userSpaceOnUse">
<stop offset="0.03" stop-color="#AFDEF9"  />
<stop offset="1" stop-color="#7CC9F9"  />
</linearGradient>
<linearGradient id="linear_fill_97_94" x1="-1667.33984375" y1="3677.1630859375" x2="-1665.9453125" y2="3677.064453125" gradientUnits="userSpaceOnUse">
<stop offset="0.03" stop-color="#AFDEF9"  />
<stop offset="1" stop-color="#7CC9F9"  />
</linearGradient>
<linearGradient id="linear_fill_97_103" x1="-11615.91064453125" y1="68044.3671875" x2="-11578.41162109375" y2="68007.421875" gradientUnits="userSpaceOnUse">
<stop offset="0" stop-color="#98D6FA"  />
<stop offset="1" stop-color="#3F76C4"  />
</linearGradient>
<linearGradient id="linear_fill_97_125" x1="-3732.8681640625" y1="20738.630859375" x2="-3749.76416015625" y2="20746.623046875" gradientUnits="userSpaceOnUse">
<stop offset="0" stop-color="#1D181C"  />
<stop offset="0.3" stop-color="#2C2422"  />
<stop offset="0.5" stop-color="#42352C"  />
<stop offset="0.7" stop-color="#57352C"  />
<stop offset="1" stop-color="#923629"  />
</linearGradient>
<linearGradient id="linear_fill_97_126" x1="-1534.04931640625" y1="30976.58984375" x2="-1534.60107421875" y2="30980.05859375" gradientUnits="userSpaceOnUse">
<stop offset="0" stop-color="#1D181C"  />
<stop offset="0.3" stop-color="#2C2422"  />
<stop offset="0.5" stop-color="#42352C"  />
<stop offset="0.7" stop-color="#57352C"  />
<stop offset="1" stop-color="#923629"  />
</linearGradient>
<linearGradient id="linear_fill_97_130" x1="-1496.28173828125" y1="20561.43359375" x2="-1504.00634765625" y2="20561.43359375" gradientUnits="userSpaceOnUse">
<stop offset="0" stop-color="#FFB859"  />
<stop offset="1" stop-color="#F97B61"  />
</linearGradient>
<linearGradient id="linear_fill_97_132" x1="-366.5224609375" y1="8194.5009765625" x2="-366.3017578125" y2="8195.873046875" gradientUnits="userSpaceOnUse">
<stop offset="0" stop-color="#98D6FA"  />
<stop offset="1" stop-color="#47B0F1"  />
</linearGradient>
<linearGradient id="linear_fill_97_134" x1="-2523.16650390625" y1="13453.66015625" x2="-2517.423828125" y2="13454.78515625" gradientUnits="userSpaceOnUse">
<stop offset="0" stop-color="#F97B61"  />
<stop offset="1" stop-color="#FFB859"  />
</linearGradient>
<linearGradient id="linear_fill_97_135" x1="-40.80078125" y1="-184.306640625" x2="-33.0087890625" y2="-180.89453125" gradientUnits="userSpaceOnUse">
<stop offset="0" stop-color="#98D6FA"  />
<stop offset="1" stop-color="#47B0F1"  />
</linearGradient>
</defs>
</svg>
