<svg width="24" height="24" viewBox="0 0 24 24" fill="none" xmlns="http://www.w3.org/2000/svg">
<g id="Group 142">
<path id="Rectangle 410" d="M12.2034 11.7966L-1.04907e-06 1.90735e-06L16 1.20797e-06C20.4183 1.01484e-06 24 3.58172 24 8L24 24L12.2034 11.7966Z" fill="#8E47F0"/>
<path id="&#232;&#183;&#175;&#229;&#190;&#132;" d="M15.89 12C15.7318 12 15.5796 11.9385 15.4648 11.8268L12.1897 8.65325C11.9444 8.416 11.936 8.02181 12.1703 7.77326C12.4047 7.5247 12.7949 7.51716 13.0402 7.75443L15.8369 10.4647L20.9096 4.22691C21.1259 3.96203 21.5137 3.92312 21.7759 4.14155C22.0381 4.35998 22.0754 4.75164 21.8604 5.01778L16.366 11.774C16.2573 11.9084 16.0978 11.99 15.9275 12H15.89Z" fill="white"/>
</g>
</svg>
